<?xml version="1.0" encoding="UTF-8" standalone="no"?>
<svg
   xmlns:dc="http://purl.org/dc/elements/1.1/"
   xmlns:cc="http://creativecommons.org/ns#"
   xmlns:rdf="http://www.w3.org/1999/02/22-rdf-syntax-ns#"
   xmlns:svg="http://www.w3.org/2000/svg"
   xmlns="http://www.w3.org/2000/svg"
   xmlns:sodipodi="http://sodipodi.sourceforge.net/DTD/sodipodi-0.dtd"
   xmlns:inkscape="http://www.inkscape.org/namespaces/inkscape"
   viewBox="0 0 22 22"
   version="1.1"
   id="svg36"
   sodipodi:docname="integration.svg"
   inkscape:version="0.92.3 (2405546, 2018-03-11)">
  <metadata
     id="metadata40">
    <rdf:RDF>
      <cc:Work
         rdf:about="">
        <dc:format>image/svg+xml</dc:format>
        <dc:type
           rdf:resource="http://purl.org/dc/dcmitype/StillImage" />
      </cc:Work>
    </rdf:RDF>
  </metadata>
  <sodipodi:namedview
     pagecolor="#ffffff"
     bordercolor="#666666"
     borderopacity="1"
     objecttolerance="10"
     gridtolerance="10"
     guidetolerance="10"
     inkscape:pageopacity="0"
     inkscape:pageshadow="2"
     inkscape:window-width="1920"
     inkscape:window-height="1016"
     id="namedview38"
     showgrid="false"
     inkscape:zoom="10.727273"
     inkscape:cx="11.186441"
     inkscape:cy="11"
     inkscape:window-x="0"
     inkscape:window-y="27"
     inkscape:window-maximized="1"
     inkscape:current-layer="svg36" />
  <defs
     id="defs3051">
    <style
       type="text/css"
       id="current-color-scheme">
      .ColorScheme-Text {
        color:#4d4d4d;
      }
      </style>
  </defs>
  <path
     style="color:#4d4d4d;fill:currentColor;fill-opacity:1;stroke:none;stroke-width:1.34957635"
     d="M 0.20338983,0.20338983 V 9.6504237 H 11 V 0.20338983 Z M 1.5529661,1.5529661 H 9.6504237 V 8.3008475 H 1.5529661 Z M 12.349576,1.6584018 v 1.3653916 3.9274778 h 1.349577 V 3.3822747 A 8.0974576,8.0974576 0 0 1 19.097457,11 h 1.349576 A 9.4470339,9.4470339 0 0 0 12.349576,1.6584018 Z M 1.5529661,11 a 9.4470339,9.4470339 0 0 0 8.0974576,9.341598 V 18.976206 15.048729 H 8.3008475 v 3.568996 A 8.0974576,8.0974576 0 0 1 2.9025424,11 Z M 11,12.349576 v 9.447034 h 10.79661 v -9.447034 z m 1.349576,1.349577 h 8.097457 v 6.74788 h -8.097457 z"
     class="ColorScheme-Text"
     id="path34"
     inkscape:connector-curvature="0" />
</svg>
